# xmcd
#
# Track frame offsets:
#	150
#	8685
#	20955
#	29921
#	38206
#	50716
#	77515
#	89376
#	100819
#	115553
#	126741
#	140052
#	146852
#	158278
#	177318
#	180429
#	188736
#	194523
#	207755
#	229644
#	247011
#	271185
#	289995
#	298452
#	305175
#	320392
#	342329
#
# Disc length: 4680 seconds
# Revision: 0
# Processed by: cddbd v1.5.2PL0 Copyright (c) Steve Scherf et al.
# Submitted via: dBpowerAMP V12.0
#
DISCID=9f12461b
DTITLE=10.9.1943 - 28.1.1944 - Tagebuch CD4
DYEAR=2009
DGENRE=
TTITLE0=082
TTITLE1=083
TTITLE2=084
TTITLE3=085
TTITLE4=086
TTITLE5=087
TTITLE6=088
TTITLE7=089
TTITLE8=090
TTITLE9=091
TTITLE10=092
TTITLE11=093
TTITLE12=094
TTITLE13=095
TTITLE14=096
TTITLE15=097
TTITLE16=098
TTITLE17=099
TTITLE18=100
TTITLE19=101
TTITLE20=102
TTITLE21=103
TTITLE22=104
TTITLE23=105
TTITLE24=106
TTITLE25=107
TTITLE26=108
EXTD=
EXTT0=
EXTT1=
EXTT2=
EXTT3=
EXTT4=
EXTT5=
EXTT6=
EXTT7=
EXTT8=
EXTT9=
EXTT10=
EXTT11=
EXTT12=
EXTT13=
EXTT14=
EXTT15=
EXTT16=
EXTT17=
EXTT18=
EXTT19=
EXTT20=
EXTT21=
EXTT22=
EXTT23=
EXTT24=
EXTT25=
EXTT26=
PLAYORDER=
